<svg width="23" height="21" viewBox="0 0 23 21" fill="none" xmlns="http://www.w3.org/2000/svg">
<path d="M21.8324 0.328482C21.9596 0.441086 22.0332 0.610915 22.0332 0.789974V6.40173C22.0332 7.21765 21.3136 7.8785 20.4266 7.8785C19.5396 7.8785 18.8199 7.21765 18.8199 6.40173C18.8199 5.58581 19.5396 4.92495 20.4266 4.92495C20.614 4.92495 20.7948 4.95449 20.9621 5.00986V2.85562L17.2133 3.77491V7.58315C17.2133 8.39907 16.4936 9.05993 15.6066 9.05993C14.7196 9.05993 14 8.39907 14 7.58315C14 6.76723 14.7196 6.10637 15.6066 6.10637C15.7941 6.10637 15.9748 6.13591 16.1422 6.19129V1.9714C16.1422 1.6945 16.3162 1.45452 16.5623 1.39545L21.3822 0.214031C21.5412 0.175266 21.7069 0.217723 21.8341 0.330327L21.8324 0.328482Z" fill="#333333"/>
<path d="M14.9679 15.3572C15.127 15.3266 15.2926 15.358 15.4279 15.4442L15.4679 15.4696C15.6093 15.5616 15.7084 15.7027 15.7443 15.8631C15.7805 16.0239 15.7489 16.1919 15.6574 16.3309L15.6281 16.3768C15.361 16.7664 15.2618 17.2405 15.3507 17.699C15.4397 18.1577 15.7102 18.5655 16.1056 18.8367C16.2974 18.9698 16.5154 19.0643 16.7462 19.1141C16.9772 19.1639 17.2167 19.1674 17.4494 19.1258C17.6821 19.0842 17.9039 18.9981 18.1007 18.8719C18.2974 18.7457 18.4657 18.5827 18.5949 18.3924L18.6124 18.3641C18.6595 18.2839 18.7231 18.2133 18.799 18.1571C18.8749 18.1008 18.9621 18.0603 19.0548 18.0369C19.1475 18.0136 19.2442 18.0082 19.339 18.0213C19.4339 18.0345 19.5255 18.0655 19.6076 18.1131C19.7466 18.2036 19.8435 18.3428 19.8771 18.5008C19.8939 18.5793 19.8939 18.6604 19.8781 18.7391C19.8622 18.8176 19.8303 18.8922 19.7843 18.9588L19.6535 19.1492C19.4305 19.4779 19.1405 19.7595 18.8009 19.9774C18.4613 20.1952 18.0794 20.3448 17.6779 20.4168C17.2764 20.4888 16.8636 20.4819 16.465 20.3963C16.0663 20.3107 15.69 20.1481 15.3585 19.9188C14.676 19.4503 14.2085 18.7468 14.0548 17.9549C13.9012 17.163 14.0733 16.3447 14.5343 15.6717L14.5783 15.6072C14.6683 15.4776 14.8088 15.388 14.9679 15.3572Z" fill="#333333"/>
<path d="M18.089 14.6619C18.3292 14.3147 18.8058 14.2125 19.1535 14.4344C19.4991 14.6553 19.585 15.1164 19.3439 15.4637L18.0705 17.3035C17.8303 17.6499 17.3546 17.753 17.008 17.5311C16.6615 17.3101 16.5755 16.849 16.8156 16.5018L18.089 14.6619Z" fill="#333333"/>
<path d="M18.4035 11.5643C19.1834 11.4039 19.9984 11.5463 20.6691 11.9608C21.0306 12.1828 21.3417 12.4717 21.5861 12.8104C21.8305 13.1492 22.0026 13.5322 22.0919 13.9354C22.1812 14.3383 22.186 14.7542 22.1066 15.159C22.0271 15.5641 21.8642 15.9505 21.6281 16.2947L21.6007 16.3338C21.5561 16.4011 21.4979 16.46 21.4298 16.5057C21.3619 16.5512 21.2852 16.5834 21.2042 16.6004C21.1231 16.6174 21.0389 16.6185 20.9572 16.6043C20.8755 16.5901 20.7974 16.5606 20.7277 16.5174C20.6522 16.4767 20.5856 16.4218 20.5324 16.3563C20.4792 16.2908 20.4399 16.2157 20.4171 16.1356C20.3944 16.0548 20.3893 15.9704 20.4015 15.8875C20.4138 15.8047 20.4432 15.7246 20.4884 15.6531C20.7555 15.2634 20.8548 14.7895 20.7658 14.3309C20.6766 13.8723 20.4063 13.4642 20.0109 13.1932C19.8189 13.0601 19.6004 12.9656 19.3693 12.9158C19.1382 12.8662 18.8989 12.8624 18.6662 12.9041C18.4334 12.9459 18.2116 13.0326 18.0148 13.159C17.818 13.2855 17.6496 13.4488 17.5207 13.6395C17.4239 13.7878 17.2708 13.8942 17.0939 13.9364C16.917 13.9785 16.7301 13.9527 16.5724 13.8651C16.4276 13.7712 16.3273 13.6262 16.2931 13.4617C16.2757 13.3806 16.2747 13.297 16.2912 13.2156C16.3077 13.1342 16.3408 13.0562 16.3888 12.9871L16.507 12.8162C16.942 12.1748 17.6239 11.7246 18.4035 11.5643Z" fill="#333333"/>
<path fill-rule="evenodd" clip-rule="evenodd" d="M1.58691 2.23223H14.1689C14.7124 2.23249 15.153 2.67409 15.1533 3.21758C15.153 3.76102 14.7124 4.20169 14.1689 4.20195H4.49609L4.4668 16.202H12.6924C12.4953 16.7346 12.4203 17.3075 12.4814 17.8758C12.4835 17.9776 12.4938 18.0804 12.5068 18.1805H1.57715C1.0516 18.1805 0.992692 18.2038 0.986328 17.8152V2.5916C0.992704 2.20998 1.05211 2.23027 1.58691 2.23027V2.23223ZM2.28809 16.202H3.26172V15.202H2.28809V16.202ZM2.28809 14.202H3.26172L3.29102 13.202H2.28809V14.202ZM2.28809 12.202H3.29102V11.202H2.28809V12.202ZM2.28809 10.202H3.29102V9.20195H2.28809V10.202ZM2.28809 8.20195H3.29102V7.20195H2.28809V8.20195ZM2.28809 6.20195H3.29102V5.20195H2.28809V6.20195ZM2.28809 4.20195H3.29102V3.20195H2.28809V4.20195Z" fill="#333333"/>
<path d="M8.87207 6.99004C8.90571 6.99828 8.93835 7.01063 8.96875 7.02715L14.1172 9.85137C14.1795 9.88585 14.2313 9.93757 14.2676 9.99883C14.3036 10.0601 14.3231 10.1309 14.3232 10.202C14.3232 10.273 14.3036 10.3438 14.2676 10.4051C14.2314 10.4662 14.1793 10.5171 14.1172 10.5516L8.96875 13.3758C8.93823 13.3923 8.90565 13.4046 8.87207 13.4129C8.83859 13.4211 8.80415 13.4252 8.76953 13.4246C8.70026 13.4233 8.632 13.4041 8.57227 13.3689C8.5128 13.3338 8.4634 13.2832 8.42871 13.2234C8.39424 13.1637 8.37488 13.0952 8.37402 13.0262V7.37871C8.37407 7.35266 8.37684 7.32685 8.38184 7.30156L8.4043 7.22734C8.42389 7.17923 8.45246 7.13481 8.48926 7.09746C8.56302 7.02319 8.66388 6.97975 8.76855 6.97832L8.87207 6.99004Z" fill="#333333"/>
</svg>
